<svg width="20" height="22" viewBox="0 0 20 22" fill="none" xmlns="http://www.w3.org/2000/svg">
<path d="M3.14959 6.39589C2.29787 6.90724 1.86008 7.41219 1.29694 8.27019C1.57989 7.5721 3.46237 2.4047 9.92931 2.2626C15.1381 2.03592 18.2079 6.54101 18.7043 8.27019C18.2648 7.52175 17.4506 6.71722 16.8559 6.39589C13.692 1.94799 6.46017 1.88234 3.14959 6.39589Z" fill="#F69429"/>
<path d="M16.8548 15.7934C17.7212 15.3054 18.0913 14.785 18.6794 13.9426C18.3728 14.7607 16.3616 19.8994 9.94236 19.8994C4.72895 19.9844 1.7815 15.6805 1.33616 13.9385C1.75348 14.6986 2.59772 15.456 3.18278 15.7934C6.21447 20.3255 13.544 20.232 16.8548 15.7934Z" fill="#F69429"/>
<path d="M7.50188 9.48704C10.0409 6.34673 14.7328 3.37436 18.3993 8.39666C21.4825 14.3439 14.094 18.2821 10.7037 15.5386L12.565 13.7823C15.8963 14.4656 17.5425 11.3829 15.98 9.3726C13.1364 6.17055 10.8577 9.80159 7.50188 12.8632L7.50188 9.48704Z" fill="#F69429"/>
<path d="M12.4981 12.6058C9.95907 15.7461 5.2672 18.7185 1.60068 13.6962C-1.48251 7.7489 5.90604 3.81075 9.29631 6.55424L7.43499 8.31051C4.10369 7.62722 2.45748 10.71 4.01997 12.7202C6.86363 15.9223 9.14231 12.2912 12.4981 9.22967L12.4981 12.6058Z" fill="#F69429"/>
</svg>
